<?xml version="1.0" encoding="utf-8" standalone="no"?>
<!DOCTYPE svg PUBLIC "-//W3C//DTD SVG 1.1//EN"
  "http://www.w3.org/Graphics/SVG/1.1/DTD/svg11.dtd">
<!-- Created with matplotlib (https://matplotlib.org/) -->
<svg height="576pt" version="1.1" viewBox="0 0 1440 576" width="1440pt" xmlns="http://www.w3.org/2000/svg" xmlns:xlink="http://www.w3.org/1999/xlink">
 <defs>
  <style type="text/css">
*{stroke-linecap:butt;stroke-linejoin:round;}
  </style>
 </defs>
 <g id="figure_1">
  <g id="patch_1">
   <path d="M 0 576 
L 1440 576 
L 1440 0 
L 0 0 
z
" style="fill:#ffffff;"/>
  </g>
  <g id="axes_1">
   <g id="patch_2">
    <path d="M 180 512.64 
L 1296 512.64 
L 1296 69.12 
L 180 69.12 
z
" style="fill:#ffffff;"/>
   </g>
   <g id="matplotlib.axis_1">
    <g id="xtick_1">
     <g id="line2d_1">
      <defs>
       <path d="M 0 0 
L 0 3.5 
" id="m8cffe29ee7" style="stroke:#000000;stroke-width:0.8;"/>
      </defs>
      <g>
       <use style="stroke:#000000;stroke-width:0.8;" x="230.727273" xlink:href="#m8cffe29ee7" y="512.64"/>
      </g>
     </g>
     <g id="text_1">
      <!-- 10点0分 -->
      <defs>
       <path d="M 27.828125 0 
L 27.828125 64.703125 
Q 25.59375 62.453125 20.234375 59.671875 
Q 14.890625 56.890625 10.359375 55.765625 
L 10.359375 65.140625 
Q 16.359375 66.796875 23.1875 70.4375 
Q 30.03125 74.078125 33.6875 77.296875 
L 37.3125 77.296875 
L 37.3125 0 
z
" id="MicrosoftYaHei-49"/>
       <path d="M 4.4375 36.328125 
Q 4.4375 56.34375 11.078125 66.625 
Q 17.71875 76.90625 30.328125 76.90625 
Q 54.34375 76.90625 54.34375 38.140625 
Q 54.34375 19 47.578125 8.859375 
Q 40.828125 -1.265625 28.609375 -1.265625 
Q 17.09375 -1.265625 10.765625 8.34375 
Q 4.4375 17.96875 4.4375 36.328125 
z
M 14.203125 36.765625 
Q 14.203125 6.640625 29.5 6.640625 
Q 44.53125 6.640625 44.53125 37.25 
Q 44.53125 68.953125 29.78125 68.953125 
Q 14.203125 68.953125 14.203125 36.765625 
z
" id="MicrosoftYaHei-48"/>
       <path d="M 14.0625 52.78125 
L 44.734375 52.78125 
L 44.734375 83.453125 
L 52.9375 83.453125 
L 52.9375 71.734375 
L 96.578125 71.734375 
L 96.578125 64.703125 
L 52.9375 64.703125 
L 52.9375 52.78125 
L 87.5 52.78125 
L 87.5 15.484375 
L 79.5 15.484375 
L 79.5 19.578125 
L 22.078125 19.578125 
L 22.078125 15.484375 
L 14.0625 15.484375 
z
M 79.5 45.75 
L 22.078125 45.75 
L 22.078125 26.609375 
L 79.5 26.609375 
z
M 84.765625 13.234375 
Q 92.578125 1.421875 97.265625 -8.0625 
L 89.84375 -12.0625 
Q 84.96875 -2.09375 78.03125 9.71875 
z
M 21.390625 8.640625 
Q 13.96875 -4.734375 8.296875 -12.359375 
L 1.5625 -7.5625 
Q 7.90625 0.828125 14.546875 12.546875 
z
M 37.703125 12.9375 
Q 42.1875 3.078125 45.515625 -7.859375 
L 37.59375 -10.59375 
Q 34.578125 0.046875 30.671875 10.40625 
z
M 61.03125 13.625 
Q 65.71875 3.953125 69.53125 -6.59375 
L 61.8125 -9.625 
Q 59.078125 -0.828125 53.90625 10.890625 
z
" id="MicrosoftYaHei-28857"/>
       <path d="M 14.0625 39.984375 
L 79 39.984375 
Q 78.515625 23.390625 77.546875 7.5625 
Q 76.375 -10.6875 60.25 -10.59375 
Q 52.34375 -10.6875 43.5625 -10.109375 
Q 42.96875 -6 42.1875 -1.8125 
Q 49.703125 -2.875 58.984375 -2.984375 
Q 68.75 -3.171875 69.734375 8.453125 
Q 70.515625 19 70.90625 32.765625 
L 40.875 32.765625 
Q 39.703125 16.453125 34.078125 6.5 
Q 26.65625 -6.59375 9.1875 -13.71875 
Q 6.640625 -10.40625 3.609375 -7.171875 
Q 19.828125 -1.125 26.953125 10.40625 
Q 32.078125 19.140625 32.859375 32.765625 
L 14.0625 32.765625 
z
M 54.5 80.609375 
L 61.53125 83.640625 
Q 72.265625 57.46875 99.21875 44.484375 
Q 94.828125 39.890625 92.875 37.0625 
Q 66.015625 52.59375 54.5 80.609375 
z
M 0.78125 43.21875 
Q 20.90625 57.46875 35.15625 82.078125 
L 42.09375 78.265625 
Q 27.25 52.296875 6.453125 36.578125 
Q 4.390625 39.59375 0.78125 43.21875 
z
" id="MicrosoftYaHei-20998"/>
      </defs>
      <g transform="translate(219.383733 551.874126)rotate(-45)scale(0.1 -0.1)">
       <use xlink:href="#MicrosoftYaHei-49"/>
       <use x="58.642578" xlink:href="#MicrosoftYaHei-48"/>
       <use x="117.285156" xlink:href="#MicrosoftYaHei-28857"/>
       <use x="217.285156" xlink:href="#MicrosoftYaHei-48"/>
       <use x="275.927734" xlink:href="#MicrosoftYaHei-20998"/>
      </g>
     </g>
    </g>
    <g id="xtick_2">
     <g id="line2d_2">
      <g>
       <use style="stroke:#000000;stroke-width:0.8;" x="273.355233" xlink:href="#m8cffe29ee7" y="512.64"/>
      </g>
     </g>
     <g id="text_2">
      <!-- 10点5分 -->
      <defs>
       <path d="M 51.46875 23.34375 
Q 51.46875 12.25 44.109375 5.46875 
Q 36.765625 -1.3125 24.359375 -1.3125 
Q 13.71875 -1.3125 8.5 1.859375 
L 8.5 11.625 
Q 16.15625 6.640625 24.125 6.640625 
Q 32.03125 6.640625 36.890625 11 
Q 41.75 15.375 41.75 22.609375 
Q 41.75 29.828125 36.6875 33.859375 
Q 31.640625 37.890625 22.40625 37.890625 
Q 15.28125 37.890625 9.578125 37.25 
L 12.359375 75.640625 
L 47.703125 75.640625 
L 47.703125 67.234375 
L 20.40625 67.234375 
L 18.84375 45.796875 
L 25.734375 46.09375 
Q 37.75 46.09375 44.609375 40.109375 
Q 51.46875 34.125 51.46875 23.34375 
z
" id="MicrosoftYaHei-53"/>
      </defs>
      <g transform="translate(262.011693 551.874126)rotate(-45)scale(0.1 -0.1)">
       <use xlink:href="#MicrosoftYaHei-49"/>
       <use x="58.642578" xlink:href="#MicrosoftYaHei-48"/>
       <use x="117.285156" xlink:href="#MicrosoftYaHei-28857"/>
       <use x="217.285156" xlink:href="#MicrosoftYaHei-53"/>
       <use x="275.927734" xlink:href="#MicrosoftYaHei-20998"/>
      </g>
     </g>
    </g>
    <g id="xtick_3">
     <g id="line2d_3">
      <g>
       <use style="stroke:#000000;stroke-width:0.8;" x="315.983193" xlink:href="#m8cffe29ee7" y="512.64"/>
      </g>
     </g>
     <g id="text_3">
      <!-- 10点10分 -->
      <g transform="translate(302.566395 556.020644)rotate(-45)scale(0.1 -0.1)">
       <use xlink:href="#MicrosoftYaHei-49"/>
       <use x="58.642578" xlink:href="#MicrosoftYaHei-48"/>
       <use x="117.285156" xlink:href="#MicrosoftYaHei-28857"/>
       <use x="217.285156" xlink:href="#MicrosoftYaHei-49"/>
       <use x="275.927734" xlink:href="#MicrosoftYaHei-48"/>
       <use x="334.570312" xlink:href="#MicrosoftYaHei-20998"/>
      </g>
     </g>
    </g>
    <g id="xtick_4">
     <g id="line2d_4">
      <g>
       <use style="stroke:#000000;stroke-width:0.8;" x="358.611154" xlink:href="#m8cffe29ee7" y="512.64"/>
      </g>
     </g>
     <g id="text_4">
      <!-- 10点15分 -->
      <g transform="translate(345.194355 556.020644)rotate(-45)scale(0.1 -0.1)">
       <use xlink:href="#MicrosoftYaHei-49"/>
       <use x="58.642578" xlink:href="#MicrosoftYaHei-48"/>
       <use x="117.285156" xlink:href="#MicrosoftYaHei-28857"/>
       <use x="217.285156" xlink:href="#MicrosoftYaHei-49"/>
       <use x="275.927734" xlink:href="#MicrosoftYaHei-53"/>
       <use x="334.570312" xlink:href="#MicrosoftYaHei-20998"/>
      </g>
     </g>
    </g>
    <g id="xtick_5">
     <g id="line2d_5">
      <g>
       <use style="stroke:#000000;stroke-width:0.8;" x="401.239114" xlink:href="#m8cffe29ee7" y="512.64"/>
      </g>
     </g>
     <g id="text_5">
      <!-- 10点20分 -->
      <defs>
       <path d="M 41.65625 55.8125 
Q 41.65625 61.921875 37.796875 65.40625 
Q 33.9375 68.890625 27.296875 68.890625 
Q 22.609375 68.890625 17.8125 66.5 
Q 13.03125 64.109375 8.890625 59.671875 
L 8.890625 68.953125 
Q 12.59375 72.796875 17.296875 74.84375 
Q 22.015625 76.90625 28.375 76.90625 
Q 38.625 76.90625 44.875 71.40625 
Q 51.125 65.921875 51.125 56.546875 
Q 51.125 48.1875 47.28125 42.078125 
Q 43.453125 35.984375 34.1875 29.59375 
Q 24.703125 23.046875 21.5 20.21875 
Q 18.3125 17.390625 17.03125 14.796875 
Q 15.765625 12.203125 15.765625 8.5 
L 53.375 8.5 
L 53.375 0 
L 5.8125 0 
L 5.8125 3.765625 
Q 5.8125 10.296875 7.59375 14.859375 
Q 9.375 19.4375 13.46875 23.75 
Q 17.578125 28.078125 26.265625 34.125 
Q 35.15625 40.375 38.40625 45.09375 
Q 41.65625 49.8125 41.65625 55.8125 
z
" id="MicrosoftYaHei-50"/>
      </defs>
      <g transform="translate(387.822315 556.020644)rotate(-45)scale(0.1 -0.1)">
       <use xlink:href="#MicrosoftYaHei-49"/>
       <use x="58.642578" xlink:href="#MicrosoftYaHei-48"/>
       <use x="117.285156" xlink:href="#MicrosoftYaHei-28857"/>
       <use x="217.285156" xlink:href="#MicrosoftYaHei-50"/>
       <use x="275.927734" xlink:href="#MicrosoftYaHei-48"/>
       <use x="334.570312" xlink:href="#MicrosoftYaHei-20998"/>
      </g>
     </g>
    </g>
    <g id="xtick_6">
     <g id="line2d_6">
      <g>
       <use style="stroke:#000000;stroke-width:0.8;" x="443.867074" xlink:href="#m8cffe29ee7" y="512.64"/>
      </g>
     </g>
     <g id="text_6">
      <!-- 10点25分 -->
      <g transform="translate(430.450275 556.020644)rotate(-45)scale(0.1 -0.1)">
       <use xlink:href="#MicrosoftYaHei-49"/>
       <use x="58.642578" xlink:href="#MicrosoftYaHei-48"/>
       <use x="117.285156" xlink:href="#MicrosoftYaHei-28857"/>
       <use x="217.285156" xlink:href="#MicrosoftYaHei-50"/>
       <use x="275.927734" xlink:href="#MicrosoftYaHei-53"/>
       <use x="334.570312" xlink:href="#MicrosoftYaHei-20998"/>
      </g>
     </g>
    </g>
    <g id="xtick_7">
     <g id="line2d_7">
      <g>
       <use style="stroke:#000000;stroke-width:0.8;" x="486.495034" xlink:href="#m8cffe29ee7" y="512.64"/>
      </g>
     </g>
     <g id="text_7">
      <!-- 10点30分 -->
      <defs>
       <path d="M 6.984375 12.640625 
Q 14.75 6.640625 24.515625 6.640625 
Q 32.328125 6.640625 36.890625 10.46875 
Q 41.453125 14.3125 41.453125 20.75 
Q 41.453125 35.109375 20.90625 35.109375 
L 14.59375 35.109375 
L 14.59375 43.015625 
L 20.609375 43.015625 
Q 38.8125 43.015625 38.8125 56.5 
Q 38.8125 68.953125 24.90625 68.953125 
Q 16.9375 68.953125 9.90625 63.578125 
L 9.90625 72.609375 
Q 17.328125 76.90625 27.25 76.90625 
Q 36.921875 76.90625 42.78125 71.84375 
Q 48.640625 66.796875 48.640625 58.734375 
Q 48.640625 43.890625 33.5 39.65625 
L 33.5 39.453125 
Q 41.703125 38.578125 46.453125 33.671875 
Q 51.21875 28.765625 51.21875 21.4375 
Q 51.21875 11.234375 43.875 4.984375 
Q 36.53125 -1.265625 24.3125 -1.265625 
Q 13.578125 -1.265625 6.984375 2.734375 
z
" id="MicrosoftYaHei-51"/>
      </defs>
      <g transform="translate(473.078236 556.020644)rotate(-45)scale(0.1 -0.1)">
       <use xlink:href="#MicrosoftYaHei-49"/>
       <use x="58.642578" xlink:href="#MicrosoftYaHei-48"/>
       <use x="117.285156" xlink:href="#MicrosoftYaHei-28857"/>
       <use x="217.285156" xlink:href="#MicrosoftYaHei-51"/>
       <use x="275.927734" xlink:href="#MicrosoftYaHei-48"/>
       <use x="334.570312" xlink:href="#MicrosoftYaHei-20998"/>
      </g>
     </g>
    </g>
    <g id="xtick_8">
     <g id="line2d_8">
      <g>
       <use style="stroke:#000000;stroke-width:0.8;" x="529.122995" xlink:href="#m8cffe29ee7" y="512.64"/>
      </g>
     </g>
     <g id="text_8">
      <!-- 10点35分 -->
      <g transform="translate(515.706196 556.020644)rotate(-45)scale(0.1 -0.1)">
       <use xlink:href="#MicrosoftYaHei-49"/>
       <use x="58.642578" xlink:href="#MicrosoftYaHei-48"/>
       <use x="117.285156" xlink:href="#MicrosoftYaHei-28857"/>
       <use x="217.285156" xlink:href="#MicrosoftYaHei-51"/>
       <use x="275.927734" xlink:href="#MicrosoftYaHei-53"/>
       <use x="334.570312" xlink:href="#MicrosoftYaHei-20998"/>
      </g>
     </g>
    </g>
    <g id="xtick_9">
     <g id="line2d_9">
      <g>
       <use style="stroke:#000000;stroke-width:0.8;" x="571.750955" xlink:href="#m8cffe29ee7" y="512.64"/>
      </g>
     </g>
     <g id="text_9">
      <!-- 10点40分 -->
      <defs>
       <path d="M 45.40625 75.640625 
L 45.40625 25.6875 
L 56.734375 25.6875 
L 56.734375 17.78125 
L 45.40625 17.78125 
L 45.40625 0 
L 36.140625 0 
L 36.140625 17.78125 
L 0.828125 17.78125 
L 0.828125 25.25 
Q 10.25 35.84375 19.765625 49.65625 
Q 29.296875 63.484375 35.5 75.640625 
z
M 11.578125 25.6875 
L 36.140625 25.6875 
L 36.140625 61.71875 
Q 31.0625 52.59375 25.25 44.015625 
Q 19.4375 35.453125 11.578125 25.6875 
z
" id="MicrosoftYaHei-52"/>
      </defs>
      <g transform="translate(558.334156 556.020644)rotate(-45)scale(0.1 -0.1)">
       <use xlink:href="#MicrosoftYaHei-49"/>
       <use x="58.642578" xlink:href="#MicrosoftYaHei-48"/>
       <use x="117.285156" xlink:href="#MicrosoftYaHei-28857"/>
       <use x="217.285156" xlink:href="#MicrosoftYaHei-52"/>
       <use x="275.927734" xlink:href="#MicrosoftYaHei-48"/>
       <use x="334.570312" xlink:href="#MicrosoftYaHei-20998"/>
      </g>
     </g>
    </g>
    <g id="xtick_10">
     <g id="line2d_10">
      <g>
       <use style="stroke:#000000;stroke-width:0.8;" x="614.378915" xlink:href="#m8cffe29ee7" y="512.64"/>
      </g>
     </g>
     <g id="text_10">
      <!-- 10点45分 -->
      <g transform="translate(600.962116 556.020644)rotate(-45)scale(0.1 -0.1)">
       <use xlink:href="#MicrosoftYaHei-49"/>
       <use x="58.642578" xlink:href="#MicrosoftYaHei-48"/>
       <use x="117.285156" xlink:href="#MicrosoftYaHei-28857"/>
       <use x="217.285156" xlink:href="#MicrosoftYaHei-52"/>
       <use x="275.927734" xlink:href="#MicrosoftYaHei-53"/>
       <use x="334.570312" xlink:href="#MicrosoftYaHei-20998"/>
      </g>
     </g>
    </g>
    <g id="xtick_11">
     <g id="line2d_11">
      <g>
       <use style="stroke:#000000;stroke-width:0.8;" x="657.006875" xlink:href="#m8cffe29ee7" y="512.64"/>
      </g>
     </g>
     <g id="text_11">
      <!-- 10点50分 -->
      <g transform="translate(643.590077 556.020644)rotate(-45)scale(0.1 -0.1)">
       <use xlink:href="#MicrosoftYaHei-49"/>
       <use x="58.642578" xlink:href="#MicrosoftYaHei-48"/>
       <use x="117.285156" xlink:href="#MicrosoftYaHei-28857"/>
       <use x="217.285156" xlink:href="#MicrosoftYaHei-53"/>
       <use x="275.927734" xlink:href="#MicrosoftYaHei-48"/>
       <use x="334.570312" xlink:href="#MicrosoftYaHei-20998"/>
      </g>
     </g>
    </g>
    <g id="xtick_12">
     <g id="line2d_12">
      <g>
       <use style="stroke:#000000;stroke-width:0.8;" x="699.634836" xlink:href="#m8cffe29ee7" y="512.64"/>
      </g>
     </g>
     <g id="text_12">
      <!-- 10点55分 -->
      <g transform="translate(686.218037 556.020644)rotate(-45)scale(0.1 -0.1)">
       <use xlink:href="#MicrosoftYaHei-49"/>
       <use x="58.642578" xlink:href="#MicrosoftYaHei-48"/>
       <use x="117.285156" xlink:href="#MicrosoftYaHei-28857"/>
       <use x="217.285156" xlink:href="#MicrosoftYaHei-53"/>
       <use x="275.927734" xlink:href="#MicrosoftYaHei-53"/>
       <use x="334.570312" xlink:href="#MicrosoftYaHei-20998"/>
      </g>
     </g>
    </g>
    <g id="xtick_13">
     <g id="line2d_13">
      <g>
       <use style="stroke:#000000;stroke-width:0.8;" x="742.262796" xlink:href="#m8cffe29ee7" y="512.64"/>
      </g>
     </g>
     <g id="text_13">
      <!-- 11点0分 -->
      <g transform="translate(730.919256 551.874126)rotate(-45)scale(0.1 -0.1)">
       <use xlink:href="#MicrosoftYaHei-49"/>
       <use x="58.642578" xlink:href="#MicrosoftYaHei-49"/>
       <use x="117.285156" xlink:href="#MicrosoftYaHei-28857"/>
       <use x="217.285156" xlink:href="#MicrosoftYaHei-48"/>
       <use x="275.927734" xlink:href="#MicrosoftYaHei-20998"/>
      </g>
     </g>
    </g>
    <g id="xtick_14">
     <g id="line2d_14">
      <g>
       <use style="stroke:#000000;stroke-width:0.8;" x="784.890756" xlink:href="#m8cffe29ee7" y="512.64"/>
      </g>
     </g>
     <g id="text_14">
      <!-- 11点5分 -->
      <g transform="translate(773.547217 551.874126)rotate(-45)scale(0.1 -0.1)">
       <use xlink:href="#MicrosoftYaHei-49"/>
       <use x="58.642578" xlink:href="#MicrosoftYaHei-49"/>
       <use x="117.285156" xlink:href="#MicrosoftYaHei-28857"/>
       <use x="217.285156" xlink:href="#MicrosoftYaHei-53"/>
       <use x="275.927734" xlink:href="#MicrosoftYaHei-20998"/>
      </g>
     </g>
    </g>
    <g id="xtick_15">
     <g id="line2d_15">
      <g>
       <use style="stroke:#000000;stroke-width:0.8;" x="827.518717" xlink:href="#m8cffe29ee7" y="512.64"/>
      </g>
     </g>
     <g id="text_15">
      <!-- 11点10分 -->
      <g transform="translate(814.101918 556.020644)rotate(-45)scale(0.1 -0.1)">
       <use xlink:href="#MicrosoftYaHei-49"/>
       <use x="58.642578" xlink:href="#MicrosoftYaHei-49"/>
       <use x="117.285156" xlink:href="#MicrosoftYaHei-28857"/>
       <use x="217.285156" xlink:href="#MicrosoftYaHei-49"/>
       <use x="275.927734" xlink:href="#MicrosoftYaHei-48"/>
       <use x="334.570312" xlink:href="#MicrosoftYaHei-20998"/>
      </g>
     </g>
    </g>
    <g id="xtick_16">
     <g id="line2d_16">
      <g>
       <use style="stroke:#000000;stroke-width:0.8;" x="870.146677" xlink:href="#m8cffe29ee7" y="512.64"/>
      </g>
     </g>
     <g id="text_16">
      <!-- 11点15分 -->
      <g transform="translate(856.729878 556.020644)rotate(-45)scale(0.1 -0.1)">
       <use xlink:href="#MicrosoftYaHei-49"/>
       <use x="58.642578" xlink:href="#MicrosoftYaHei-49"/>
       <use x="117.285156" xlink:href="#MicrosoftYaHei-28857"/>
       <use x="217.285156" xlink:href="#MicrosoftYaHei-49"/>
       <use x="275.927734" xlink:href="#MicrosoftYaHei-53"/>
       <use x="334.570312" xlink:href="#MicrosoftYaHei-20998"/>
      </g>
     </g>
    </g>
    <g id="xtick_17">
     <g id="line2d_17">
      <g>
       <use style="stroke:#000000;stroke-width:0.8;" x="912.774637" xlink:href="#m8cffe29ee7" y="512.64"/>
      </g>
     </g>
     <g id="text_17">
      <!-- 11点20分 -->
      <g transform="translate(899.357838 556.020644)rotate(-45)scale(0.1 -0.1)">
       <use xlink:href="#MicrosoftYaHei-49"/>
       <use x="58.642578" xlink:href="#MicrosoftYaHei-49"/>
       <use x="117.285156" xlink:href="#MicrosoftYaHei-28857"/>
       <use x="217.285156" xlink:href="#MicrosoftYaHei-50"/>
       <use x="275.927734" xlink:href="#MicrosoftYaHei-48"/>
       <use x="334.570312" xlink:href="#MicrosoftYaHei-20998"/>
      </g>
     </g>
    </g>
    <g id="xtick_18">
     <g id="line2d_18">
      <g>
       <use style="stroke:#000000;stroke-width:0.8;" x="955.402597" xlink:href="#m8cffe29ee7" y="512.64"/>
      </g>
     </g>
     <g id="text_18">
      <!-- 11点25分 -->
      <g transform="translate(941.985799 556.020644)rotate(-45)scale(0.1 -0.1)">
       <use xlink:href="#MicrosoftYaHei-49"/>
       <use x="58.642578" xlink:href="#MicrosoftYaHei-49"/>
       <use x="117.285156" xlink:href="#MicrosoftYaHei-28857"/>
       <use x="217.285156" xlink:href="#MicrosoftYaHei-50"/>
       <use x="275.927734" xlink:href="#MicrosoftYaHei-53"/>
       <use x="334.570312" xlink:href="#MicrosoftYaHei-20998"/>
      </g>
     </g>
    </g>
    <g id="xtick_19">
     <g id="line2d_19">
      <g>
       <use style="stroke:#000000;stroke-width:0.8;" x="998.030558" xlink:href="#m8cffe29ee7" y="512.64"/>
      </g>
     </g>
     <g id="text_19">
      <!-- 11点30分 -->
      <g transform="translate(984.613759 556.020644)rotate(-45)scale(0.1 -0.1)">
       <use xlink:href="#MicrosoftYaHei-49"/>
       <use x="58.642578" xlink:href="#MicrosoftYaHei-49"/>
       <use x="117.285156" xlink:href="#MicrosoftYaHei-28857"/>
       <use x="217.285156" xlink:href="#MicrosoftYaHei-51"/>
       <use x="275.927734" xlink:href="#MicrosoftYaHei-48"/>
       <use x="334.570312" xlink:href="#MicrosoftYaHei-20998"/>
      </g>
     </g>
    </g>
    <g id="xtick_20">
     <g id="line2d_20">
      <g>
       <use style="stroke:#000000;stroke-width:0.8;" x="1040.658518" xlink:href="#m8cffe29ee7" y="512.64"/>
      </g>
     </g>
     <g id="text_20">
      <!-- 11点35分 -->
      <g transform="translate(1027.241719 556.020644)rotate(-45)scale(0.1 -0.1)">
       <use xlink:href="#MicrosoftYaHei-49"/>
       <use x="58.642578" xlink:href="#MicrosoftYaHei-49"/>
       <use x="117.285156" xlink:href="#MicrosoftYaHei-28857"/>
       <use x="217.285156" xlink:href="#MicrosoftYaHei-51"/>
       <use x="275.927734" xlink:href="#MicrosoftYaHei-53"/>
       <use x="334.570312" xlink:href="#MicrosoftYaHei-20998"/>
      </g>
     </g>
    </g>
    <g id="xtick_21">
     <g id="line2d_21">
      <g>
       <use style="stroke:#000000;stroke-width:0.8;" x="1083.286478" xlink:href="#m8cffe29ee7" y="512.64"/>
      </g>
     </g>
     <g id="text_21">
      <!-- 11点40分 -->
      <g transform="translate(1069.869679 556.020644)rotate(-45)scale(0.1 -0.1)">
       <use xlink:href="#MicrosoftYaHei-49"/>
       <use x="58.642578" xlink:href="#MicrosoftYaHei-49"/>
       <use x="117.285156" xlink:href="#MicrosoftYaHei-28857"/>
       <use x="217.285156" xlink:href="#MicrosoftYaHei-52"/>
       <use x="275.927734" xlink:href="#MicrosoftYaHei-48"/>
       <use x="334.570312" xlink:href="#MicrosoftYaHei-20998"/>
      </g>
     </g>
    </g>
    <g id="xtick_22">
     <g id="line2d_22">
      <g>
       <use style="stroke:#000000;stroke-width:0.8;" x="1125.914439" xlink:href="#m8cffe29ee7" y="512.64"/>
      </g>
     </g>
     <g id="text_22">
      <!-- 11点45分 -->
      <g transform="translate(1112.49764 556.020644)rotate(-45)scale(0.1 -0.1)">
       <use xlink:href="#MicrosoftYaHei-49"/>
       <use x="58.642578" xlink:href="#MicrosoftYaHei-49"/>
       <use x="117.285156" xlink:href="#MicrosoftYaHei-28857"/>
       <use x="217.285156" xlink:href="#MicrosoftYaHei-52"/>
       <use x="275.927734" xlink:href="#MicrosoftYaHei-53"/>
       <use x="334.570312" xlink:href="#MicrosoftYaHei-20998"/>
      </g>
     </g>
    </g>
    <g id="xtick_23">
     <g id="line2d_23">
      <g>
       <use style="stroke:#000000;stroke-width:0.8;" x="1168.542399" xlink:href="#m8cffe29ee7" y="512.64"/>
      </g>
     </g>
     <g id="text_23">
      <!-- 11点50分 -->
      <g transform="translate(1155.1256 556.020644)rotate(-45)scale(0.1 -0.1)">
       <use xlink:href="#MicrosoftYaHei-49"/>
       <use x="58.642578" xlink:href="#MicrosoftYaHei-49"/>
       <use x="117.285156" xlink:href="#MicrosoftYaHei-28857"/>
       <use x="217.285156" xlink:href="#MicrosoftYaHei-53"/>
       <use x="275.927734" xlink:href="#MicrosoftYaHei-48"/>
       <use x="334.570312" xlink:href="#MicrosoftYaHei-20998"/>
      </g>
     </g>
    </g>
    <g id="xtick_24">
     <g id="line2d_24">
      <g>
       <use style="stroke:#000000;stroke-width:0.8;" x="1211.170359" xlink:href="#m8cffe29ee7" y="512.64"/>
      </g>
     </g>
     <g id="text_24">
      <!-- 11点55分 -->
      <g transform="translate(1197.75356 556.020644)rotate(-45)scale(0.1 -0.1)">
       <use xlink:href="#MicrosoftYaHei-49"/>
       <use x="58.642578" xlink:href="#MicrosoftYaHei-49"/>
       <use x="117.285156" xlink:href="#MicrosoftYaHei-28857"/>
       <use x="217.285156" xlink:href="#MicrosoftYaHei-53"/>
       <use x="275.927734" xlink:href="#MicrosoftYaHei-53"/>
       <use x="334.570312" xlink:href="#MicrosoftYaHei-20998"/>
      </g>
     </g>
    </g>
    <g id="text_25">
     <!-- 时间 -->
     <defs>
      <path d="M 5.375 73.875 
L 39.0625 73.875 
L 39.0625 -5.71875 
L 31.34375 -5.71875 
L 31.34375 2.390625 
L 13.09375 2.390625 
L 13.09375 -6.890625 
L 5.375 -6.890625 
z
M 42.28125 61.578125 
L 76.953125 61.578125 
L 76.953125 83.15625 
L 84.765625 83.15625 
L 84.765625 61.578125 
L 98.640625 61.578125 
L 98.640625 54.34375 
L 84.765625 54.34375 
L 84.765625 1.8125 
Q 84.765625 -11.28125 72.265625 -11.28125 
Q 66.609375 -11.28125 55.671875 -10.984375 
Q 55.171875 -7.46875 54.109375 -2.78125 
Q 64.359375 -3.5625 70.125 -3.5625 
Q 76.953125 -3.5625 76.953125 3.375 
L 76.953125 54.34375 
L 42.28125 54.34375 
z
M 13.09375 9.625 
L 31.34375 9.625 
L 31.34375 34.90625 
L 13.09375 34.90625 
z
M 31.34375 66.65625 
L 13.09375 66.65625 
L 13.09375 41.9375 
L 31.34375 41.9375 
z
M 53.21875 44.96875 
Q 61.03125 30.71875 65.046875 22.21875 
Q 62.5 21.046875 57.234375 18.3125 
Q 53.421875 27.59375 46.296875 41.453125 
z
" id="MicrosoftYaHei-26102"/>
      <path d="M 29.109375 56.984375 
L 70.515625 56.984375 
L 70.515625 8.640625 
L 36.140625 8.640625 
L 36.140625 2.59375 
L 29.109375 2.59375 
z
M 37.3125 69.578125 
L 37.3125 76.90625 
L 93.953125 76.90625 
L 93.953125 -0.4375 
Q 93.953125 -12.75 79.984375 -12.75 
Q 74.3125 -12.75 65.140625 -12.546875 
Q 64.75 -9.625 63.578125 -4.640625 
Q 71.6875 -5.21875 79 -5.21875 
Q 86.328125 -5.21875 86.328125 1.90625 
L 86.328125 69.578125 
z
M 6.546875 63.8125 
L 14.15625 63.8125 
L 14.15625 -12.75 
L 6.546875 -12.75 
z
M 36.140625 15.578125 
L 63.484375 15.578125 
L 63.484375 29.4375 
L 36.140625 29.4375 
z
M 63.484375 50.046875 
L 36.140625 50.046875 
L 36.140625 36.375 
L 63.484375 36.375 
z
M 11.625 78.171875 
L 17.1875 83.15625 
Q 24.609375 76.125 30.953125 69.484375 
L 24.609375 63.921875 
Q 18.65625 70.953125 11.625 78.171875 
z
" id="MicrosoftYaHei-38388"/>
     </defs>
     <g transform="translate(728 569.772217)scale(0.1 -0.1)">
      <use xlink:href="#MicrosoftYaHei-26102"/>
      <use x="100" xlink:href="#MicrosoftYaHei-38388"/>
     </g>
    </g>
   </g>
   <g id="matplotlib.axis_2">
    <g id="ytick_1">
     <g id="line2d_25">
      <defs>
       <path d="M 0 0 
L -3.5 0 
" id="m2e01bbf3e3" style="stroke:#000000;stroke-width:0.8;"/>
      </defs>
      <g>
       <use style="stroke:#000000;stroke-width:0.8;" x="180" xlink:href="#m2e01bbf3e3" y="501.968371"/>
      </g>
     </g>
     <g id="text_26">
      <!-- 20 -->
      <g transform="translate(161.271875 505.965246)scale(0.1 -0.1)">
       <use xlink:href="#MicrosoftYaHei-50"/>
       <use x="58.642578" xlink:href="#MicrosoftYaHei-48"/>
      </g>
     </g>
    </g>
    <g id="ytick_2">
     <g id="line2d_26">
      <g>
       <use style="stroke:#000000;stroke-width:0.8;" x="180" xlink:href="#m2e01bbf3e3" y="446.648991"/>
      </g>
     </g>
     <g id="text_27">
      <!-- 22 -->
      <g transform="translate(161.271875 450.645866)scale(0.1 -0.1)">
       <use xlink:href="#MicrosoftYaHei-50"/>
       <use x="58.642578" xlink:href="#MicrosoftYaHei-50"/>
      </g>
     </g>
    </g>
    <g id="ytick_3">
     <g id="line2d_27">
      <g>
       <use style="stroke:#000000;stroke-width:0.8;" x="180" xlink:href="#m2e01bbf3e3" y="391.329611"/>
      </g>
     </g>
     <g id="text_28">
      <!-- 24 -->
      <g transform="translate(161.271875 395.326486)scale(0.1 -0.1)">
       <use xlink:href="#MicrosoftYaHei-50"/>
       <use x="58.642578" xlink:href="#MicrosoftYaHei-52"/>
      </g>
     </g>
    </g>
    <g id="ytick_4">
     <g id="line2d_28">
      <g>
       <use style="stroke:#000000;stroke-width:0.8;" x="180" xlink:href="#m2e01bbf3e3" y="336.010231"/>
      </g>
     </g>
     <g id="text_29">
      <!-- 26 -->
      <defs>
       <path d="M 49.703125 65.921875 
Q 43.796875 68.953125 37.359375 68.953125 
Q 27.546875 68.953125 21.578125 60.40625 
Q 15.625 51.859375 15.53125 37.0625 
L 15.765625 37.0625 
Q 21.140625 47.46875 32.90625 47.46875 
Q 42.71875 47.46875 48.578125 41.0625 
Q 54.4375 34.671875 54.4375 24.078125 
Q 54.4375 12.984375 47.671875 5.859375 
Q 40.921875 -1.265625 30.421875 -1.265625 
Q 18.890625 -1.265625 12.328125 7.734375 
Q 5.765625 16.75 5.765625 33.296875 
Q 5.765625 53.328125 14.375 65.109375 
Q 23 76.90625 37.0625 76.90625 
Q 45.125 76.90625 49.703125 74.703125 
z
M 16.109375 24.75 
Q 16.109375 17.28125 20.09375 11.953125 
Q 24.078125 6.640625 30.671875 6.640625 
Q 36.921875 6.640625 40.828125 11.234375 
Q 44.734375 15.828125 44.734375 23.046875 
Q 44.734375 30.859375 41.046875 35.203125 
Q 37.359375 39.546875 30.5625 39.546875 
Q 24.125 39.546875 20.109375 35.15625 
Q 16.109375 30.765625 16.109375 24.75 
z
" id="MicrosoftYaHei-54"/>
      </defs>
      <g transform="translate(161.271875 340.007106)scale(0.1 -0.1)">
       <use xlink:href="#MicrosoftYaHei-50"/>
       <use x="58.642578" xlink:href="#MicrosoftYaHei-54"/>
      </g>
     </g>
    </g>
    <g id="ytick_5">
     <g id="line2d_29">
      <g>
       <use style="stroke:#000000;stroke-width:0.8;" x="180" xlink:href="#m2e01bbf3e3" y="280.690851"/>
      </g>
     </g>
     <g id="text_30">
      <!-- 28 -->
      <defs>
       <path d="M 4.78125 21.09375 
Q 4.78125 27.640625 8.6875 33.15625 
Q 12.59375 38.671875 18.75 41.015625 
Q 13.8125 43.796875 10.9375 48.140625 
Q 8.0625 52.484375 8.0625 57.5625 
Q 8.0625 62.9375 10.8125 67.375 
Q 13.578125 71.828125 18.484375 74.359375 
Q 23.390625 76.90625 29.296875 76.90625 
Q 35.25 76.90625 40.1875 74.390625 
Q 45.125 71.875 47.859375 67.421875 
Q 50.59375 62.984375 50.59375 57.5625 
Q 50.59375 52.59375 47.78125 48.21875 
Q 44.96875 43.84375 39.984375 41.015625 
Q 46.140625 38.625 50 33.109375 
Q 53.859375 27.59375 53.859375 21.09375 
Q 53.859375 14.65625 50.78125 9.546875 
Q 47.703125 4.4375 42.03125 1.609375 
Q 36.375 -1.21875 29.296875 -1.21875 
Q 22.265625 -1.21875 16.640625 1.609375 
Q 11.03125 4.4375 7.90625 9.5625 
Q 4.78125 14.703125 4.78125 21.09375 
z
M 14.15625 21.53125 
Q 14.15625 14.796875 18.3125 10.734375 
Q 22.46875 6.6875 29.34375 6.6875 
Q 36.078125 6.6875 40.34375 10.8125 
Q 44.625 14.9375 44.625 21.53125 
Q 44.625 27.78125 40.296875 32.046875 
Q 35.984375 36.328125 29.34375 36.328125 
Q 22.75 36.328125 18.453125 32.15625 
Q 14.15625 27.984375 14.15625 21.53125 
z
M 16.890625 56.78125 
Q 16.890625 51.703125 20.5 48.0625 
Q 24.125 44.4375 29.34375 44.4375 
Q 34.46875 44.4375 38.203125 48.09375 
Q 41.9375 51.765625 41.9375 56.78125 
Q 41.9375 61.921875 38.34375 65.484375 
Q 34.765625 69.046875 29.34375 69.046875 
Q 23.96875 69.046875 20.421875 65.546875 
Q 16.890625 62.0625 16.890625 56.78125 
z
" id="MicrosoftYaHei-56"/>
      </defs>
      <g transform="translate(161.271875 284.687726)scale(0.1 -0.1)">
       <use xlink:href="#MicrosoftYaHei-50"/>
       <use x="58.642578" xlink:href="#MicrosoftYaHei-56"/>
      </g>
     </g>
    </g>
    <g id="ytick_6">
     <g id="line2d_30">
      <g>
       <use style="stroke:#000000;stroke-width:0.8;" x="180" xlink:href="#m2e01bbf3e3" y="225.37147"/>
      </g>
     </g>
     <g id="text_31">
      <!-- 30 -->
      <g transform="translate(161.271875 229.368345)scale(0.1 -0.1)">
       <use xlink:href="#MicrosoftYaHei-51"/>
       <use x="58.642578" xlink:href="#MicrosoftYaHei-48"/>
      </g>
     </g>
    </g>
    <g id="ytick_7">
     <g id="line2d_31">
      <g>
       <use style="stroke:#000000;stroke-width:0.8;" x="180" xlink:href="#m2e01bbf3e3" y="170.05209"/>
      </g>
     </g>
     <g id="text_32">
      <!-- 32 -->
      <g transform="translate(161.271875 174.048965)scale(0.1 -0.1)">
       <use xlink:href="#MicrosoftYaHei-51"/>
       <use x="58.642578" xlink:href="#MicrosoftYaHei-50"/>
      </g>
     </g>
    </g>
    <g id="ytick_8">
     <g id="line2d_32">
      <g>
       <use style="stroke:#000000;stroke-width:0.8;" x="180" xlink:href="#m2e01bbf3e3" y="114.73271"/>
      </g>
     </g>
     <g id="text_33">
      <!-- 34 -->
      <g transform="translate(161.271875 118.729585)scale(0.1 -0.1)">
       <use xlink:href="#MicrosoftYaHei-51"/>
       <use x="58.642578" xlink:href="#MicrosoftYaHei-52"/>
      </g>
     </g>
    </g>
    <g id="text_34">
     <!-- 温度 单位（C） -->
     <defs>
      <path d="M 20.796875 -1.703125 
L 30.375 -1.703125 
L 30.375 30.125 
L 91.40625 30.125 
L 91.40625 -1.703125 
L 98.640625 -1.703125 
L 98.640625 -8.734375 
L 20.796875 -8.734375 
z
M 34.078125 78.171875 
L 87.59375 78.171875 
L 87.59375 35.59375 
L 80.375 35.59375 
L 80.375 39.890625 
L 41.3125 39.890625 
L 41.3125 35.5 
L 34.078125 35.5 
z
M 41.3125 46.53125 
L 80.375 46.53125 
L 80.375 55.8125 
L 41.3125 55.8125 
z
M 80.375 71.53125 
L 41.3125 71.53125 
L 41.3125 62.25 
L 80.375 62.25 
z
M 13.671875 28.265625 
Q 17.671875 26.703125 21.6875 25.34375 
Q 17.578125 8.34375 12.703125 -12.359375 
L 4.109375 -9.8125 
Q 9.578125 7.5625 13.671875 28.265625 
z
M 83.984375 23.296875 
L 73.34375 23.296875 
L 73.34375 -1.703125 
L 83.984375 -1.703125 
z
M 55.5625 -1.703125 
L 66.109375 -1.703125 
L 66.109375 23.296875 
L 55.5625 23.296875 
z
M 37.796875 -1.703125 
L 48.34375 -1.703125 
L 48.34375 23.296875 
L 37.796875 23.296875 
z
M 6.25 56.59375 
Q 13.578125 51.421875 23.4375 43.3125 
Q 19.828125 39.203125 17.78125 36.96875 
Q 6.734375 46.828125 1.375 50.921875 
z
M 9.96875 81.890625 
Q 17.390625 76.03125 26.765625 67.625 
Q 23.4375 64.203125 21 61.578125 
Q 10.453125 71.828125 4.984375 76.515625 
z
" id="MicrosoftYaHei-28201"/>
      <path d="M 24.21875 19 
L 24.21875 25.4375 
L 85.453125 25.4375 
L 85.453125 19.09375 
Q 76.609375 9.578125 64.796875 2.546875 
Q 78.90625 -3.125 97.859375 -4.828125 
L 94.046875 -12.453125 
Q 72.265625 -9.421875 56.9375 -1.703125 
Q 40.625 -9.671875 19.53125 -13.53125 
Q 17.96875 -10.40625 15.53125 -6.5 
Q 34.859375 -3.46875 49.46875 2.59375 
Q 39.015625 9.375 32.28125 19 
z
M 21.296875 55.328125 
L 35.84375 55.328125 
L 35.84375 63.53125 
L 43.265625 63.53125 
L 43.265625 55.328125 
L 70.90625 55.328125 
L 70.90625 63.625 
L 78.328125 63.625 
L 78.328125 55.328125 
L 96.09375 55.328125 
L 96.09375 48.875 
L 78.328125 48.875 
L 78.328125 30.125 
L 70.90625 30.125 
L 70.90625 33.546875 
L 43.265625 33.546875 
L 43.265625 30.03125 
L 35.84375 30.03125 
L 35.84375 48.875 
L 21.296875 48.875 
z
M 47.265625 80.8125 
L 54.390625 84.234375 
Q 57.71875 79 61.078125 72.40625 
L 97.078125 72.40625 
L 97.078125 65.578125 
L 19.140625 65.578125 
L 19.140625 36.1875 
Q 19.140625 2.78125 6.15625 -13.625 
Q 3.71875 -10.40625 0.59375 -6.984375 
Q 11.328125 6.203125 11.53125 36.671875 
L 11.53125 72.40625 
L 52.046875 72.40625 
Q 49.8125 76.703125 47.265625 80.8125 
z
M 43.265625 39.796875 
L 70.90625 39.796875 
L 70.90625 48.875 
L 43.265625 48.875 
z
M 75.296875 19 
L 40.4375 19 
Q 47.359375 11.375 57.125 6.109375 
Q 67.71875 11.578125 75.296875 19 
z
" id="MicrosoftYaHei-24230"/>
      <path id="MicrosoftYaHei-32"/>
      <path d="M 1.953125 14.203125 
L 46.1875 14.203125 
L 46.1875 25.25 
L 19.140625 25.25 
L 19.140625 20.65625 
L 11.71875 20.65625 
L 11.71875 68.015625 
L 31.984375 68.015625 
Q 27.296875 73.484375 21.875 79.25 
L 27.4375 83.84375 
Q 34.671875 76.90625 40.140625 71.046875 
L 36.53125 68.015625 
L 59.421875 68.015625 
Q 64.796875 75.140625 70.3125 83.546875 
L 78.125 79.34375 
Q 73.09375 73.25 68.40625 68.015625 
L 88.375 68.015625 
L 88.375 20.65625 
L 80.953125 20.65625 
L 80.953125 25.25 
L 53.8125 25.25 
L 53.8125 14.203125 
L 98.046875 14.203125 
L 98.046875 7.171875 
L 53.8125 7.171875 
L 53.8125 -13.421875 
L 46.1875 -13.421875 
L 46.1875 7.171875 
L 1.953125 7.171875 
z
M 53.8125 32.078125 
L 80.953125 32.078125 
L 80.953125 43.40625 
L 53.8125 43.40625 
z
M 19.140625 32.078125 
L 46.1875 32.078125 
L 46.1875 43.40625 
L 19.140625 43.40625 
z
M 80.953125 61.1875 
L 53.8125 61.1875 
L 53.8125 50.046875 
L 80.953125 50.046875 
z
M 19.140625 50.046875 
L 46.1875 50.046875 
L 46.1875 61.1875 
L 19.140625 61.1875 
z
" id="MicrosoftYaHei-21333"/>
      <path d="M 27.9375 -0.921875 
L 66.0625 -0.921875 
Q 73.09375 17.875 82.328125 52.6875 
L 91.109375 50.046875 
Q 85.203125 31.9375 74.3125 -0.921875 
L 98.734375 -0.921875 
L 98.734375 -8.15625 
L 27.9375 -8.15625 
z
M 1.265625 35.796875 
Q 15.234375 56.890625 22.359375 83.15625 
L 30.671875 81.109375 
Q 26.609375 68.703125 21.96875 57.953125 
L 21.96875 -13.328125 
L 14.65625 -13.328125 
L 14.65625 42.671875 
Q 10.0625 34.078125 4.984375 26.8125 
Q 3.609375 30.515625 1.265625 35.796875 
z
M 29.984375 65.484375 
L 64.40625 65.484375 
Q 60.0625 72.796875 54.78125 79.046875 
L 61.421875 83.640625 
Q 65.71875 78.65625 72.078125 70.265625 
L 64.84375 65.484375 
L 96.96875 65.484375 
L 96.96875 58.25 
L 29.984375 58.25 
z
M 43.265625 51.703125 
Q 49.703125 34.125 57.328125 9.125 
L 49.21875 6.78125 
Q 42.578125 30.71875 35.84375 49.171875 
z
" id="MicrosoftYaHei-20301"/>
      <path d="M 82.625 -17.1875 
Q 65.1875 1.859375 65.1875 28.90625 
Q 65.1875 56.296875 82.625 75.59375 
L 91.015625 75.59375 
Q 73.6875 55.8125 73.6875 29 
Q 73.6875 2.59375 90.921875 -17.1875 
z
" id="MicrosoftYaHei-65288"/>
      <path d="M 61.53125 3.125 
Q 53.171875 -1.265625 40.578125 -1.265625 
Q 24.3125 -1.265625 14.59375 9.0625 
Q 4.890625 19.390625 4.890625 36.375 
Q 4.890625 54.640625 15.828125 65.765625 
Q 26.765625 76.90625 43.609375 76.90625 
Q 54.4375 76.90625 61.53125 73.828125 
L 61.53125 63.625 
Q 53.421875 68.109375 43.703125 68.109375 
Q 31.0625 68.109375 23.09375 59.6875 
Q 15.140625 51.265625 15.140625 36.96875 
Q 15.140625 23.390625 22.5625 15.40625 
Q 29.984375 7.421875 42 7.421875 
Q 53.21875 7.421875 61.53125 12.5 
z
" id="MicrosoftYaHei-67"/>
      <path d="M 17.390625 -17.1875 
L 8.984375 -17.1875 
Q 26.3125 2.546875 26.3125 29.5 
Q 26.3125 55.953125 9.078125 75.59375 
L 17.390625 75.59375 
Q 34.71875 56.6875 34.71875 29.5 
Q 34.71875 2 17.390625 -17.1875 
z
" id="MicrosoftYaHei-65289"/>
     </defs>
     <g transform="translate(154.785937 325.704219)rotate(-90)scale(0.1 -0.1)">
      <use xlink:href="#MicrosoftYaHei-28201"/>
      <use x="100" xlink:href="#MicrosoftYaHei-24230"/>
      <use x="200" xlink:href="#MicrosoftYaHei-32"/>
      <use x="229.589844" xlink:href="#MicrosoftYaHei-21333"/>
      <use x="329.589844" xlink:href="#MicrosoftYaHei-20301"/>
      <use x="429.589844" xlink:href="#MicrosoftYaHei-65288"/>
      <use x="529.589844" xlink:href="#MicrosoftYaHei-67"/>
      <use x="596.484375" xlink:href="#MicrosoftYaHei-65289"/>
     </g>
    </g>
   </g>
   <g id="line2d_33">
    <path clip-path="url(#p67c6c3c19e)" d="M 230.727273 99.024329 
L 239.252865 489.877333 
L 247.778457 444.852386 
L 256.304049 256.573455 
L 264.829641 95.441942 
L 273.355233 316.947461 
L 281.880825 272.760646 
L 290.406417 219.99044 
L 298.932009 492.48 
L 307.457601 420.603096 
L 315.983193 288.053905 
L 324.508785 130.402142 
L 333.034377 213.03988 
L 341.559969 340.054536 
L 350.085561 393.229561 
L 358.611154 459.32823 
L 367.136746 129.976975 
L 375.662338 382.628442 
L 384.18793 307.900901 
L 392.713522 266.378624 
L 401.239114 89.28 
L 409.764706 141.736857 
L 418.290298 438.007459 
L 426.81589 301.359785 
L 435.341482 251.651648 
L 443.867074 450.052076 
L 452.392666 122.422961 
L 460.918258 219.921448 
L 469.44385 125.42461 
L 477.969442 328.900198 
L 486.495034 225.639184 
L 495.020626 318.46813 
L 503.546218 270.957101 
L 512.071811 425.335203 
L 520.597403 403.300672 
L 529.122995 345.689642 
L 537.648587 312.010203 
L 546.174179 405.781651 
L 554.699771 163.435146 
L 563.225363 277.834839 
L 571.750955 395.344083 
L 580.276547 421.24989 
L 588.802139 135.435286 
L 597.327731 367.271249 
L 605.853323 153.628915 
L 614.378915 320.632555 
L 622.904507 156.39734 
L 631.430099 407.51231 
L 639.955691 392.746943 
L 648.481283 269.320275 
L 657.006875 339.709317 
L 665.532468 450.49885 
L 674.05806 340.811165 
L 682.583652 179.023596 
L 691.109244 129.771199 
L 699.634836 256.945361 
L 708.160428 304.614327 
L 716.68602 170.907312 
L 725.211612 221.631846 
L 733.737204 296.975462 
L 742.262796 387.871491 
L 750.788388 348.547631 
L 759.31398 386.80176 
L 767.839572 303.090522 
L 776.365164 407.70767 
L 784.890756 303.732362 
L 793.416348 156.760959 
L 801.94194 157.433399 
L 810.467532 150.708086 
L 818.993125 331.754586 
L 827.518717 486.217115 
L 836.044309 341.040719 
L 844.569901 304.451057 
L 853.095493 177.379237 
L 861.621085 488.471198 
L 870.146677 128.074578 
L 878.672269 240.607169 
L 887.197861 279.268132 
L 895.723453 133.91882 
L 904.249045 101.686659 
L 912.774637 406.944151 
L 921.300229 435.648547 
L 929.825821 340.393182 
L 938.351413 146.695729 
L 946.877005 312.094685 
L 955.402597 454.161901 
L 963.928189 393.878461 
L 972.453782 292.376716 
L 980.979374 250.94418 
L 989.504966 414.113217 
L 998.030558 456.227187 
L 1006.55615 96.062337 
L 1015.081742 203.734683 
L 1023.607334 163.189866 
L 1032.132926 296.733203 
L 1040.658518 207.136625 
L 1049.18411 459.911513 
L 1057.709702 341.325611 
L 1066.235294 400.420154 
L 1074.760886 473.49942 
L 1083.286478 429.794485 
L 1091.81207 161.043808 
L 1100.337662 481.672909 
L 1108.863254 264.623632 
L 1117.388846 440.155288 
L 1125.914439 99.50098 
L 1134.440031 138.530312 
L 1142.965623 209.47275 
L 1151.491215 294.78619 
L 1160.016807 155.095641 
L 1168.542399 297.571521 
L 1177.067991 259.48252 
L 1185.593583 205.107905 
L 1194.119175 200.514136 
L 1202.644767 293.360302 
L 1211.170359 90.954324 
L 1219.695951 173.272788 
L 1228.221543 333.785335 
L 1236.747135 351.41353 
L 1245.272727 337.686912 
" style="fill:none;stroke:#0000ff;stroke-linecap:square;stroke-width:3;"/>
   </g>
   <g id="patch_3">
    <path d="M 180 512.64 
L 180 69.12 
" style="fill:none;stroke:#000000;stroke-linecap:square;stroke-linejoin:miter;stroke-width:0.8;"/>
   </g>
   <g id="patch_4">
    <path d="M 1296 512.64 
L 1296 69.12 
" style="fill:none;stroke:#000000;stroke-linecap:square;stroke-linejoin:miter;stroke-width:0.8;"/>
   </g>
   <g id="patch_5">
    <path d="M 180 512.64 
L 1296 512.64 
" style="fill:none;stroke:#000000;stroke-linecap:square;stroke-linejoin:miter;stroke-width:0.8;"/>
   </g>
   <g id="patch_6">
    <path d="M 180 69.12 
L 1296 69.12 
" style="fill:none;stroke:#000000;stroke-linecap:square;stroke-linejoin:miter;stroke-width:0.8;"/>
   </g>
   <g id="text_35">
    <!-- 10点到12点温度变化情况 -->
    <defs>
     <path d="M 44.625 64.40625 
Q 52.4375 52.875 59.28125 40.375 
Q 55.5625 38.625 51.765625 36.46875 
Q 50.046875 40.09375 48.25 43.609375 
Q 27.203125 41.546875 8.296875 39.59375 
L 4.78125 47.703125 
Q 10.453125 50.734375 14.546875 57.375 
Q 18.3125 63.03125 21.921875 70.0625 
L 3.71875 70.0625 
L 3.71875 77.296875 
L 59.765625 77.296875 
L 59.765625 70.0625 
L 31.15625 70.0625 
Q 23.875 57.71875 16.40625 47.609375 
Q 30.328125 48.640625 44.734375 50.140625 
Q 41.5 55.765625 37.984375 61.078125 
z
M 4.390625 27.09375 
L 27.34375 27.09375 
L 27.34375 39.203125 
L 35.15625 39.203125 
L 35.15625 27.09375 
L 57.515625 27.09375 
L 57.515625 19.875 
L 35.15625 19.875 
L 35.15625 2.6875 
Q 46.6875 4.15625 58.890625 5.8125 
Q 58.890625 2.390625 59.28125 -1.8125 
Q 31.640625 -5.21875 3.71875 -9.328125 
L 1.46875 -1.125 
Q 13.921875 0.140625 27.34375 1.765625 
L 27.34375 19.875 
L 4.390625 19.875 
z
M 86.234375 83.15625 
L 94.34375 83.15625 
L 94.34375 0.53125 
Q 94.34375 -11.671875 82.515625 -11.671875 
Q 78.515625 -11.671875 68.265625 -11.578125 
Q 67.671875 -7.5625 66.796875 -2.78125 
Q 75.390625 -3.5625 80.078125 -3.5625 
Q 86.234375 -3.65625 86.234375 2.78125 
z
M 65.046875 72.609375 
L 72.953125 72.609375 
L 72.953125 10.40625 
L 65.046875 10.40625 
z
" id="MicrosoftYaHei-21040"/>
     <path d="M 13.09375 25.53125 
L 13.09375 32.28125 
L 79.5 32.28125 
L 79.5 25.53125 
Q 70.21875 13.328125 57.171875 4.828125 
Q 73.046875 -2.78125 98.640625 -4.640625 
Q 95.125 -9.515625 92.96875 -12.84375 
Q 66.796875 -9.28125 49.65625 0.53125 
Q 33.15625 -7.953125 6.640625 -13.53125 
Q 4.203125 -9.71875 1.65625 -6.296875 
Q 27.203125 -1.90625 42.625 5.125 
Q 31.984375 13.09375 24.265625 25.53125 
z
M 3.609375 70.84375 
L 48.140625 70.84375 
Q 45.125 76.3125 42.578125 80.328125 
L 49.609375 83.734375 
Q 54.390625 76.3125 56.25 72.796875 
L 52.484375 70.84375 
L 96.875 70.84375 
L 96.875 63.921875 
L 65.328125 63.921875 
L 65.328125 36.765625 
L 57.8125 36.765625 
L 57.8125 63.921875 
L 42.09375 63.921875 
L 42.09375 36.578125 
L 34.578125 36.578125 
L 34.578125 63.921875 
L 3.609375 63.921875 
z
M 69.921875 25.53125 
L 33.0625 25.53125 
Q 40.234375 14.890625 49.953125 8.9375 
Q 61.671875 15.875 69.921875 25.53125 
z
M 71.1875 53.65625 
L 76.5625 58.25 
Q 89.0625 47.015625 97.078125 38.421875 
L 91.015625 33.0625 
Q 81.546875 43.703125 71.1875 53.65625 
z
M 21.578125 58.453125 
L 27.4375 53.46875 
Q 17.484375 42.046875 7.8125 32.765625 
Q 5.375 35.5 2.15625 38.234375 
Q 12.40625 47.015625 21.578125 58.453125 
z
" id="MicrosoftYaHei-21464"/>
     <path d="M 28.8125 22.703125 
Q 41.609375 28.65625 52.734375 36.421875 
L 52.734375 81.203125 
L 61.140625 81.203125 
L 61.140625 42.71875 
Q 76.078125 54.78125 87.703125 70.5625 
L 94.828125 65.375 
Q 80.609375 46.484375 61.140625 32.328125 
L 61.140625 4.734375 
Q 61.140625 -1.90625 68.171875 -1.90625 
L 80.5625 -1.90625 
Q 87.203125 -1.90625 88.28125 4.4375 
Q 89.65625 11.078125 90.046875 19.78125 
Q 94.140625 18.21875 98.640625 16.9375 
Q 97.859375 8.734375 96.578125 1.90625 
Q 94.734375 -9.328125 82.515625 -9.328125 
L 66.015625 -9.328125 
Q 52.734375 -9.328125 52.734375 3.765625 
L 52.734375 26.609375 
Q 43.609375 20.75 33.5 15.875 
Q 31.453125 19.09375 28.8125 22.703125 
z
M 1.375 34.71875 
Q 18.359375 57.28125 26.375 82.671875 
L 34.859375 80.21875 
Q 30.21875 68.109375 24.8125 57.421875 
L 24.8125 -12.453125 
L 16.609375 -12.453125 
L 16.609375 42.71875 
Q 11.1875 33.9375 5.078125 26.21875 
Q 3.421875 30.421875 1.375 34.71875 
z
" id="MicrosoftYaHei-21270"/>
     <path d="M 43.84375 -12.453125 
L 36.421875 -12.453125 
L 36.421875 37.0625 
L 91.3125 37.0625 
L 91.3125 -0.640625 
Q 91.3125 -11.46875 81.453125 -11.671875 
Q 75 -11.765625 64.84375 -11.671875 
Q 64.359375 -8.546875 63.375 -4.15625 
Q 72.65625 -4.734375 78.515625 -4.734375 
Q 83.890625 -4.734375 83.890625 -0.046875 
L 83.890625 5.21875 
L 43.84375 5.21875 
z
M 30.078125 49.171875 
L 59.96875 49.171875 
L 59.96875 55.90625 
L 35.359375 55.90625 
L 35.359375 62.0625 
L 59.96875 62.0625 
L 59.96875 68.609375 
L 32.625 68.609375 
L 32.625 74.75 
L 59.96875 74.75 
L 59.96875 83.546875 
L 67.390625 83.546875 
L 67.390625 74.75 
L 96.6875 74.75 
L 96.6875 68.609375 
L 67.390625 68.609375 
L 67.390625 62.0625 
L 93.953125 62.0625 
L 93.953125 55.90625 
L 67.390625 55.90625 
L 67.390625 49.171875 
L 98.734375 49.171875 
L 98.734375 43.015625 
L 30.078125 43.015625 
z
M 14.546875 82.671875 
L 21.484375 82.671875 
L 21.484375 62.796875 
L 25.203125 65.484375 
Q 30.171875 59.625 34.078125 54.640625 
L 28.609375 50.640625 
Q 25.59375 55.078125 21.484375 60.453125 
L 21.484375 -12.75 
L 14.546875 -12.75 
z
M 83.890625 30.8125 
L 43.84375 30.8125 
L 43.84375 24.078125 
L 83.890625 24.078125 
z
M 43.84375 11.28125 
L 83.890625 11.28125 
L 83.890625 18.015625 
L 43.84375 18.015625 
z
M 4.984375 60.40625 
L 11.234375 59.625 
Q 10.15625 47.796875 7.71875 34.515625 
Q 5.46875 35.109375 1.375 35.890625 
Q 3.515625 45.453125 4.984375 60.40625 
z
" id="MicrosoftYaHei-24773"/>
     <path d="M 39.84375 31 
L 32.234375 31 
L 32.234375 78.078125 
L 90.046875 78.078125 
L 90.046875 31 
L 82.421875 31 
L 82.421875 35.296875 
L 73.046875 35.296875 
L 73.046875 1.125 
Q 73.046875 -3.765625 77.640625 -3.765625 
L 84.375 -3.765625 
Q 89.0625 -3.765625 89.65625 1.421875 
Q 90.328125 6 90.53125 13.53125 
Q 93.84375 12.15625 98.4375 10.59375 
Q 97.75 2.875 96.78125 -2.296875 
Q 95.40625 -10.796875 86.03125 -10.796875 
L 76.375 -10.796875 
Q 65.4375 -10.796875 65.4375 -0.140625 
L 65.4375 35.296875 
L 55.328125 35.296875 
Q 54.984375 16.703125 49.421875 7.078125 
Q 43.359375 -3.953125 25.984375 -13.53125 
Q 23.828125 -10.203125 21.09375 -6.890625 
Q 37.109375 1.90625 42.578125 11.1875 
Q 47.46875 19 47.796875 35.296875 
L 39.84375 35.296875 
z
M 82.421875 71.046875 
L 39.84375 71.046875 
L 39.84375 42.328125 
L 82.421875 42.328125 
z
M 18.453125 37.75 
Q 22.65625 34.8125 25.984375 32.859375 
Q 17.78125 13.421875 9.1875 -7.765625 
L 1.375 -3.078125 
Q 10.640625 14.984375 18.453125 37.75 
z
M 8.296875 76.3125 
Q 17.28125 67.53125 26.078125 57.375 
L 19.34375 51.3125 
Q 11.328125 61.765625 2.546875 71.140625 
z
" id="MicrosoftYaHei-20917"/>
    </defs>
    <g transform="translate(669.92625 63.12)scale(0.12 -0.12)">
     <use xlink:href="#MicrosoftYaHei-49"/>
     <use x="58.642578" xlink:href="#MicrosoftYaHei-48"/>
     <use x="117.285156" xlink:href="#MicrosoftYaHei-28857"/>
     <use x="217.285156" xlink:href="#MicrosoftYaHei-21040"/>
     <use x="317.285156" xlink:href="#MicrosoftYaHei-49"/>
     <use x="375.927734" xlink:href="#MicrosoftYaHei-50"/>
     <use x="434.570312" xlink:href="#MicrosoftYaHei-28857"/>
     <use x="534.570312" xlink:href="#MicrosoftYaHei-28201"/>
     <use x="634.570312" xlink:href="#MicrosoftYaHei-24230"/>
     <use x="734.570312" xlink:href="#MicrosoftYaHei-21464"/>
     <use x="834.570312" xlink:href="#MicrosoftYaHei-21270"/>
     <use x="934.570312" xlink:href="#MicrosoftYaHei-24773"/>
     <use x="1034.570312" xlink:href="#MicrosoftYaHei-20917"/>
    </g>
   </g>
  </g>
 </g>
 <defs>
  <clipPath id="p67c6c3c19e">
   <rect height="443.52" width="1116" x="180" y="69.12"/>
  </clipPath>
 </defs>
</svg>
